<?xml version="1.0" standalone="no"?>
<!DOCTYPE svg PUBLIC "-//W3C//DTD SVG 20010904//EN"
 "http://www.w3.org/TR/2001/REC-SVG-20010904/DTD/svg10.dtd">
<svg version="1.0" xmlns="http://www.w3.org/2000/svg"
 width="246.000000pt" height="205.000000pt" viewBox="0 0 246.000000 205.000000"
 preserveAspectRatio="xMidYMid meet">
<metadata>
Created by potrace 1.16, written by Peter Selinger 2001-2019
</metadata>
<g transform="translate(0.000000,205.000000) scale(0.100000,-0.100000)"
fill="#000000" stroke="none">
<path d="M315 2041 c-73 -5 -100 -12 -144 -36 -60 -33 -110 -87 -143 -154
l-23 -46 0 -780 0 -780 34 -63 c40 -74 84 -115 161 -151 l55 -26 975 0 975 0
56 26 c72 34 134 96 168 168 l26 56 0 770 0 770 -26 55 c-33 70 -99 136 -169
169 l-55 26 -900 1 c-495 1 -940 -1 -990 -5z m1633 -187 c68 -77 -49 -181
-122 -108 -39 39 -27 105 24 131 33 17 70 8 98 -23z m245 5 c27 -33 23 -93 -9
-118 -56 -44 -134 -8 -134 62 0 77 94 114 143 56z m107 -935 c0 -450 -3 -642
-11 -657 -17 -32 -60 -77 -91 -93 -23 -12 -178 -14 -969 -14 l-941 0 -40 22
c-22 13 -51 41 -64 64 l-24 41 0 636 0 637 1070 0 1070 0 0 -636z"/>
<path d="M330 945 l0 -205 35 0 35 0 0 104 c0 113 9 136 54 136 40 0 46 -18
46 -132 l0 -108 36 0 36 0 -3 126 c-4 125 -4 126 -33 151 -23 20 -37 24 -64
19 -19 -3 -43 -13 -53 -22 -18 -17 -19 -15 -19 59 l0 77 -35 0 -35 0 0 -205z"/>
<path d="M1805 1138 c-18 -48 -155 -464 -155 -471 0 -4 14 -7 32 -5 l31 3 79
235 c43 129 78 238 78 242 0 13 -60 9 -65 -4z"/>
<path d="M1973 905 l-81 -245 33 0 33 0 78 233 c42 127 79 238 82 245 3 8 -7
12 -30 12 l-33 0 -82 -245z"/>
<path d="M712 1118 c-24 -15 -32 -27 -32 -49 0 -16 -4 -29 -10 -29 -5 0 -10
-13 -10 -30 0 -16 4 -30 9 -30 4 0 11 -48 13 -106 6 -123 15 -137 83 -132 35
3 40 6 43 30 3 21 -1 27 -20 30 -22 3 -23 8 -26 94 -3 89 -2 91 20 90 18 -1
24 5 26 27 3 23 0 27 -22 27 -23 0 -26 4 -26 38 0 56 -10 64 -48 40z"/>
<path d="M963 1120 c-26 -15 -33 -27 -33 -50 0 -20 -5 -30 -15 -30 -9 0 -15
-9 -15 -25 0 -14 7 -28 15 -31 12 -5 15 -26 15 -105 0 -86 3 -102 20 -119 35
-35 110 -24 110 16 0 19 -5 24 -24 24 -31 0 -36 15 -36 106 0 72 1 74 25 74
21 0 25 5 25 30 0 25 -4 30 -24 30 -23 0 -25 4 -28 50 l-3 50 -32 -20z"/>
<path d="M1236 1039 c-21 -17 -26 -18 -26 -5 0 11 -9 16 -30 16 l-30 0 0 -195
0 -195 30 0 30 0 0 60 c0 61 8 72 30 45 7 -8 28 -15 47 -15 42 0 77 33 92 86
41 146 -51 276 -143 203z m67 -54 c36 -35 28 -153 -11 -174 -25 -13 -61 5 -73
36 -13 34 -7 117 11 138 16 19 54 19 73 0z"/>
</g>
</svg>
